<svg width="17" height="16" viewBox="0 0 17 16" fill="none" xmlns="http://www.w3.org/2000/svg">
<path d="M16.6156 6.01183C16.4805 5.59593 16.1219 5.29464 15.6898 5.23154L11.3143 4.59556L9.35728 0.633623C8.97109 -0.15001 7.68911 -0.15001 7.30292 0.633623L5.34595 4.59556L0.980774 5.23154C0.548879 5.29447 0.190285 5.59699 0.0561643 6.01183C-0.0790115 6.42773 0.0343674 6.88265 0.347258 7.18623L3.51185 10.2626L2.76601 14.6165C2.69271 15.0461 2.86919 15.4815 3.22198 15.7382C3.57601 15.9937 4.04341 16.027 4.4296 15.8241L8.32966 13.7675L12.2413 15.8241C12.4087 15.9124 12.592 15.956 12.7741 15.956C13.0112 15.956 13.2484 15.8827 13.4502 15.7383C13.8031 15.4805 13.9794 15.0463 13.9061 14.6167L13.1603 10.2628L16.3249 7.1864C16.6374 6.88371 16.7508 6.42668 16.6156 6.01183Z" fill="#FFBB56"/>
</svg>
